<svg version="1" xmlns="http://www.w3.org/2000/svg" width="1226.667" height="1226.667" viewBox="0 0 920.000000 920.000000"><path d="M679.1 2.2c-.5 1.3-59.9 141.3-132.1 311.3-72.2 169.9-131.4 309.6-131.7 310.3-.4 1 24.1 1.2 122.3 1l122.7-.3 15.9-37.4c8.7-20.5 15.8-37.7 15.8-38.2s-37.3-1-84.3-1.1l-84.3-.3L638.7 276C702.1 126.7 754.3 3.5 754.6 2.2l.6-2.2H680l-.9 2.2zM423.5 5.1C297 15.6 181.9 76.7 102.5 175.5c-14.7 18.4-23.4 30.8-34.9 49.8-36.2 59.9-57.5 124.4-64.1 194.1-2 21-2 64.2 0 85.2 5.6 58.3 21.4 113 47.6 164.4 4.3 8.5 10.1 19.1 12.7 23.5l4.8 8 39.2.3c21.6.1 39.2 0 39.2-.2 0-.3-3.1-4.8-6.9-10.1-39.9-55-64.4-120.3-71.6-190.5-2.1-20.4-1.6-68.8.9-86.5 4.9-33.8 11.2-59.8 21.2-86.6 45.4-122.7 148-214.8 273.9-246.3 48.8-12.2 102.4-14.9 152-7.6 32.9 4.8 70.1 15.3 98.7 27.8 2.6 1.2 5 1.7 5.3 1.3 2.1-3.5 24.4-57.8 24.1-58.7-.6-1.5-27-11.9-45.3-17.8-26.8-8.7-57.8-15.3-89.3-19.2-15.9-1.9-69.5-2.7-86.5-1.3z"/><path d="M731.3 95.7c-.4 1-6.2 14.8-13 30.8-9.7 22.8-12 29.2-11.1 30.1.7.6 6.7 5.9 13.4 11.7 36 31.5 66.1 70.4 89.1 115.3 22.2 43.3 34.8 85 40.9 135.4 1.4 10.8 1.8 21.8 1.8 43 0 30.6-1.2 44.8-6 71-28.9 156.9-150.7 281.5-306.9 314-43.9 9.1-93.2 10.5-137.5 3.9-39.4-5.9-76.1-17.2-111.9-34.5l-17.4-8.4H159.5l4.4 3.8c74.2 62.8 165.4 99.9 263.4 107.3 19.6 1.5 64 .6 82.7-1.5 75.9-8.9 144.1-34.2 207.1-76.8C809.5 778.4 877.6 681 904.3 573c43.2-174.2-18.4-356.5-158.3-468.4-14.1-11.3-13.8-11.2-14.7-8.9z"/><path d="M450.3 170.7c-.4 1-52.6 124-115.9 273.3L219.1 715.5l-84.9.3-84.9.2-15.8 37.3c-8.6 20.4-16 37.8-16.2 38.5-.4 1 24.1 1.2 122.2 1l122.7-.3 126.9-299C458.9 329 518.4 188.8 521.4 181.7l5.4-12.7h-37.9c-35.2 0-38 .1-38.6 1.7z"/></svg>